<svg xmlns="http://www.w3.org/2000/svg" xmlns:xlink="http://www.w3.org/1999/xlink" width="260" height="250"><defs><path d="M130 250L56.41 125 130 0l73.59 125L130 250zm-2.62-167.49l-1.3.06-1.3.1-1.28.11-1.28.14-1.28.17-1.26.19-1.26.22-1.25.24-1.24.26-1.23.29-1.22.31-1.21.34-1.21.35-1.19.38-1.18.41-1.18.42-1.16.45-1.15.47-1.14.49-1.13.51-1.12.53-1.11.55-1.09.58-1.08.59-1.07.61-1.05.63-1.05.66-1.03.67-1.01.69-1 .71-.99.72-.97.75-.96.76-.94.78-.93.8-.91.82-.9.83-.88.85-.51.5-.5.51-.5.52-.49.52-.49.53-.48.53-.48.53-.47.55-.46.54-.46.56-.45.56-.45.56-.44.57-.43.57-.43.58-.42.58-.42.59-.41.59-.4.6-.39.6-.39.61-.39.61-.37.62-.37.62-.36.62-.36.63-.35.64-.34.63-.33.65-.33.64-.32.65-.31.66-.3.66-.3.66-.29.67-.28.67-.28.67-.27.68-.26.68-.25.69.26.69.26.68.28.68.27.67.29.67.29.67.3.66.31.66.31.66.32.65.33.64.34.65.34.63.35.64.35.63.36.62.37.62.37.62.39.61.38.61.4.6.4.6.41.59.41.59.42.58.42.58.44.57.43.57.45.56.45.56.46.56.46.54.47.55.47.53.48.53.49.53.49.52.5.52.5.51.51.5.88.85.9.83.91.82.93.8.94.78.96.76.97.75.99.72 1 .71 1.01.69 1.03.67 1.05.66 1.05.63 1.07.61 1.08.59 1.09.58 1.11.55 1.12.53 1.13.51 1.14.49 1.15.47 1.16.45 1.18.42 1.18.41 1.19.38 1.21.35 1.21.34 1.22.31 1.23.29 1.24.26 1.25.24 1.26.22 1.26.19 1.28.17 1.28.14 1.28.11 1.3.1 1.3.06 1.31.04 1.31.01 1.31-.01 1.31-.04 1.3-.06 1.3-.1 1.28-.11 1.28-.14 1.28-.17 1.26-.19 1.26-.22 1.25-.24 1.24-.26 1.23-.29 1.22-.31 1.21-.34 1.21-.35 1.19-.38 1.18-.41 1.18-.42 1.16-.45 1.15-.47 1.14-.49 1.13-.51 1.12-.53 1.11-.55 1.09-.58 1.08-.59 1.07-.61 1.05-.63 1.05-.66 1.03-.67 1.01-.69 1-.71.99-.72.97-.75.96-.76.94-.78.93-.8.91-.82.9-.83.88-.85.51-.5.5-.51.5-.52.49-.52.49-.53.48-.53.48-.53.47-.55.46-.54.46-.56.45-.56.45-.56.44-.57.43-.57.43-.58.42-.58.42-.59.41-.59.4-.6.39-.6.39-.61.39-.61.37-.62.37-.62.36-.62.36-.63.35-.64.34-.63.33-.65.33-.64.32-.65.31-.66.3-.66.3-.66.29-.67.28-.67.28-.67.27-.68.26-.68.25-.69-.26-.69-.26-.68-.28-.68-.27-.67-.29-.67-.29-.67-.3-.66-.31-.66-.31-.66-.32-.65-.33-.64-.34-.65-.34-.63-.35-.64-.35-.63-.36-.62-.37-.62-.37-.62-.39-.61-.38-.61-.4-.6-.4-.6-.41-.59-.41-.59-.42-.58-.42-.58-.44-.57-.43-.57-.45-.56-.45-.56-.46-.56-.46-.54-.47-.55-.47-.53-.48-.53-.49-.53-.49-.52-.5-.52-.5-.51-.51-.5-.88-.85-.9-.83-.91-.82-.93-.8-.94-.78-.96-.76-.97-.75-.99-.72-1-.71-1.01-.69-1.03-.67-1.05-.66-1.05-.63-1.07-.61-1.08-.59-1.09-.58-1.11-.55-1.12-.53-1.13-.51-1.14-.49-1.15-.47-1.16-.45-1.18-.42-1.18-.41-1.19-.38-1.21-.35-1.21-.34-1.22-.31-1.23-.29-1.24-.26-1.25-.24-1.26-.22-1.26-.19-1.28-.17-1.28-.14-1.28-.11-1.3-.1-1.3-.06-1.31-.04-1.31-.01-1.31.01-1.31.04z" id="a"/><path d="M133.24 74.7l1.6.16 1.57.22 1.56.29 1.53.35 1.51.41 1.49.46 1.46.52 1.44.58 1.4.63 1.38.68 1.35.74 1.31.78 1.29.83 1.24.88 1.21.93 1.18.97 1.13 1.02 1.1 1.06 1.06 1.09 1.01 1.14.97 1.18.92 1.21.88 1.25.83 1.29.79 1.31.73 1.35.68 1.38.63 1.41.57 1.44.52 1.46.47 1.49.4 1.52.35 1.54.29 1.55.22 1.58.17 1.6.09 1.62.04 1.63-.04 1.63-.09 1.62-.17 1.6-.22 1.58-.29 1.56-.35 1.53-.4 1.52-.47 1.49-.52 1.46-.57 1.44-.63 1.41-.68 1.38-.73 1.35-.79 1.32-.83 1.28-.88 1.25-.92 1.21-.97 1.18-1.01 1.14-1.06 1.1-1.1 1.05-1.13 1.02-1.18.97-1.21.93-1.24.88-1.29.83-1.31.79-1.35.73-1.38.68-1.4.63-1.44.58-1.46.52-1.49.47-1.51.4-1.53.35-1.56.29-1.57.22-1.6.17-1.61.1-1.63.03-1.63-.03-1.61-.1-1.6-.17-1.57-.22-1.56-.29-1.53-.35-1.51-.4-1.49-.47-1.46-.52-1.44-.58-1.4-.63-1.38-.68-1.35-.73-1.31-.79-1.29-.83-1.24-.88-1.21-.93-1.18-.97-1.13-1.02-1.1-1.05-1.06-1.1-1.01-1.14-.97-1.18-.92-1.21-.88-1.25-.83-1.28-.79-1.32-.73-1.35-.68-1.38-.63-1.41-.57-1.44-.52-1.46-.47-1.49-.4-1.52-.35-1.53-.29-1.56-.22-1.58-.17-1.6-.09-1.62-.04-1.63.04-1.63.09-1.62.17-1.6.22-1.58.29-1.55.35-1.54.4-1.52.47-1.49.52-1.46.57-1.44.63-1.41.68-1.38.73-1.35.79-1.31.83-1.29.88-1.25.92-1.21.97-1.18 1.01-1.14 1.06-1.09 1.1-1.06 1.13-1.02 1.18-.97 1.21-.93 1.24-.88 1.29-.83 1.31-.78 1.35-.74 1.38-.68 1.4-.63 1.44-.58 1.46-.52 1.49-.46 1.51-.41 1.53-.35 1.56-.29 1.57-.22 1.6-.16 1.61-.1 1.63-.04 1.63.04 1.61.1zm-5.92 26.37l-1.28.33-1.23.45-1.16.57-1.11.67-1.02.77-.95.86-.87.96-.77 1.03-.67 1.1-.56 1.17-.45 1.23-.33 1.28-.2 1.32-.07 1.37.07 1.36.2 1.33.33 1.28.45 1.22.56 1.17.67 1.11.77 1.03.87.95.95.86 1.02.77 1.11.68 1.16.56 1.23.45 1.28.33 1.32.21 1.36.07 1.36-.07 1.32-.21 1.28-.33 1.23-.45 1.16-.56 1.11-.68 1.02-.77.95-.86.87-.95.77-1.03.67-1.11.56-1.17.45-1.22.33-1.28.2-1.33.07-1.36-.07-1.37-.2-1.32-.33-1.28-.45-1.23-.56-1.17-.67-1.1-.77-1.03-.87-.96-.95-.86-1.02-.77-1.11-.67-1.16-.57-1.23-.45-1.28-.33-1.32-.2-1.36-.07-1.36.07-1.32.2z" id="b"/><path d="M195.41 67.12L229.54 125l-34.13 57.88h30.53L260 125l-34.06-57.88h-30.53z" id="c"/><path d="M64.59 67.12H34.06L0 125l34.06 57.88h30.53L30.46 125l34.13-57.88z" id="d"/></defs><use xlink:href="#a" fill="#0f0f0f"/><use xlink:href="#a" fill-opacity="0" stroke="#000" stroke-opacity="0"/><use xlink:href="#b" fill="#0f0f0f"/><use xlink:href="#b" fill-opacity="0" stroke="#000" stroke-opacity="0"/><g><use xlink:href="#c" fill="#0f0f0f"/><use xlink:href="#c" fill-opacity="0" stroke="#000" stroke-opacity="0"/></g><g><use xlink:href="#d" fill="#0f0f0f"/><use xlink:href="#d" fill-opacity="0" stroke="#000" stroke-opacity="0"/></g></svg>